<svg xmlns="http://www.w3.org/2000/svg" xmlns:xlink="http://www.w3.org/1999/xlink" width="1080" zoomAndPan="magnify" viewBox="0 0 810 187.499995" height="250" preserveAspectRatio="xMidYMid meet" version="1.0"><defs><g/></defs><g fill="#444444" fill-opacity="1"><g transform="translate(12.076533, 102.955811)"><g><path d="M 92.199219 -39.710938 C 92.199219 -52.601562 85.40625 -61.695312 71.710938 -61.695312 C 63.652344 -61.695312 57.4375 -58.242188 53.867188 -52.71875 C 50.761719 -58.242188 45.121094 -61.695312 37.410156 -61.695312 C 29.234375 -61.695312 23.941406 -57.320312 21.753906 -53.175781 L 21.753906 -60.199219 L 6.214844 -60.199219 L 6.214844 0 L 22.101562 0 L 22.101562 -36.027344 C 22.101562 -43.164062 26.242188 -47.421875 31.882812 -47.421875 C 37.753906 -47.421875 41.207031 -43.394531 41.207031 -36.601562 L 41.207031 0 L 57.089844 0 L 57.089844 -35.914062 C 57.089844 -43.164062 61.121094 -47.421875 66.875 -47.421875 C 72.746094 -47.421875 76.3125 -43.164062 76.3125 -36.027344 L 76.3125 0 L 92.199219 0 Z M 92.199219 -39.710938 "/></g></g></g><g fill="#444444" fill-opacity="1"><g transform="translate(112.213073, 102.955811)"><g><path d="M 30.617188 20.601562 L 61.351562 -60.199219 L 44.773438 -60.199219 L 31.191406 -20.949219 L 17.726562 -60.199219 L 0.691406 -60.199219 L 23.828125 -1.496094 L 15.421875 20.601562 Z M 30.617188 20.601562 "/></g></g></g><g fill="#444444" fill-opacity="1"><g transform="translate(176.5537, 102.955811)"><g><path d="M 6.214844 0.113281 C 6.214844 5.523438 3.683594 8.519531 -2.070312 8.519531 C -3.222656 8.519531 -4.835938 8.289062 -4.835938 8.289062 L -4.835938 21.753906 C -4.835938 21.753906 -2.761719 21.984375 -0.921875 21.984375 C 12.085938 21.984375 22.101562 16.691406 22.101562 0.804688 L 22.101562 -60.199219 L 6.214844 -60.199219 Z M 4.835938 -74.703125 C 4.835938 -69.523438 8.863281 -65.609375 14.042969 -65.609375 C 19.335938 -65.609375 23.367188 -69.523438 23.367188 -74.703125 C 23.367188 -79.882812 19.335938 -83.796875 14.042969 -83.796875 C 8.863281 -83.796875 4.835938 -79.882812 4.835938 -74.703125 Z M 4.835938 -74.703125 "/></g></g></g><g fill="#444444" fill-opacity="1"><g transform="translate(207.17021, 102.955811)"><g><path d="M 2.878906 -29.925781 C 2.878906 -11.742188 16.460938 1.496094 35.222656 1.496094 C 54.097656 1.496094 67.679688 -11.742188 67.679688 -29.925781 C 67.679688 -48.113281 53.636719 -61.695312 35.222656 -61.695312 C 16.921875 -61.695312 2.878906 -48.226562 2.878906 -29.925781 Z M 18.761719 -29.925781 C 18.761719 -40.285156 25.667969 -47.652344 35.222656 -47.652344 C 44.773438 -47.652344 51.796875 -40.171875 51.796875 -29.925781 C 51.796875 -19.683594 44.773438 -12.546875 35.222656 -12.546875 C 25.78125 -12.546875 18.761719 -19.683594 18.761719 -29.925781 Z M 18.761719 -29.925781 "/></g></g></g><g fill="#444444" fill-opacity="1"><g transform="translate(279.913079, 102.955811)"><g><path d="M 6.214844 0 L 21.179688 0 L 21.179688 -6.214844 C 22.789062 -4.257812 28.777344 1.496094 39.019531 1.496094 C 56.285156 1.496094 68.484375 -11.511719 68.484375 -30.042969 C 68.484375 -48.6875 57.207031 -61.695312 39.941406 -61.695312 C 29.582031 -61.695312 23.597656 -55.941406 22.101562 -53.867188 L 22.101562 -83.21875 L 6.214844 -83.21875 Z M 21.640625 -29.925781 C 21.640625 -41.207031 28.316406 -47.652344 37.0625 -47.652344 C 46.269531 -47.652344 52.488281 -40.402344 52.488281 -29.925781 C 52.488281 -19.222656 46.042969 -12.546875 37.0625 -12.546875 C 27.394531 -12.546875 21.640625 -20.375 21.640625 -29.925781 Z M 21.640625 -29.925781 "/></g></g></g><g fill="#358ca0" fill-opacity="1"><g transform="translate(353.47079, 102.955811)"><g><path d="M 24.632812 1.496094 C 37.640625 1.496094 47.769531 -5.871094 47.769531 -17.609375 C 47.769531 -39.136719 19.222656 -34.53125 19.222656 -44.085938 C 19.222656 -47.078125 21.753906 -48.917969 25.4375 -48.917969 C 31.078125 -48.917969 34.414062 -45.464844 36.257812 -43.164062 L 46.730469 -50.992188 C 43.855469 -55.710938 37.523438 -61.695312 26.128906 -61.695312 C 13.8125 -61.695312 4.257812 -55.019531 4.257812 -43.855469 C 4.257812 -22.445312 32.6875 -26.011719 32.6875 -16.804688 C 32.6875 -13.351562 29.8125 -11.394531 25.324219 -11.394531 C 18.53125 -11.394531 14.503906 -14.503906 11.511719 -17.957031 L 2.1875 -9.667969 C 5.410156 -4.488281 12.777344 1.496094 24.632812 1.496094 Z M 24.632812 1.496094 "/></g></g></g><g fill="#358ca0" fill-opacity="1"><g transform="translate(405.725979, 102.955811)"><g><path d="M 35.914062 -12.546875 C 25.898438 -12.546875 18.761719 -19.796875 18.761719 -30.042969 C 18.761719 -39.710938 25.09375 -47.652344 35.335938 -47.652344 C 42.128906 -47.652344 46.730469 -44.316406 49.378906 -41.898438 L 53.867188 -55.25 C 49.953125 -58.242188 43.738281 -61.695312 34.875 -61.695312 C 16.574219 -61.695312 2.878906 -48.226562 2.878906 -29.925781 C 2.878906 -11.625 16.230469 1.496094 34.992188 1.496094 C 43.738281 1.496094 50.300781 -2.1875 53.753906 -4.949219 L 49.496094 -17.957031 C 46.847656 -15.769531 42.011719 -12.546875 35.914062 -12.546875 Z M 35.914062 -12.546875 "/></g></g></g><g fill="#358ca0" fill-opacity="1"><g transform="translate(464.311636, 102.955811)"><g><path d="M 2.878906 -29.925781 C 2.878906 -11.742188 16.460938 1.496094 35.222656 1.496094 C 54.097656 1.496094 67.679688 -11.742188 67.679688 -29.925781 C 67.679688 -48.113281 53.636719 -61.695312 35.222656 -61.695312 C 16.921875 -61.695312 2.878906 -48.226562 2.878906 -29.925781 Z M 18.761719 -29.925781 C 18.761719 -40.285156 25.667969 -47.652344 35.222656 -47.652344 C 44.773438 -47.652344 51.796875 -40.171875 51.796875 -29.925781 C 51.796875 -19.683594 44.773438 -12.546875 35.222656 -12.546875 C 25.78125 -12.546875 18.761719 -19.683594 18.761719 -29.925781 Z M 18.761719 -29.925781 "/></g></g></g><g fill="#358ca0" fill-opacity="1"><g transform="translate(537.054516, 102.955811)"><g><path d="M 7.710938 -60.199219 L 1.265625 -60.199219 L 1.265625 -47.308594 L 7.597656 -47.308594 L 7.597656 -23.597656 C 7.597656 -7.25 13.925781 0.804688 28.316406 0.804688 C 32.6875 0.804688 35.105469 0.230469 35.105469 0.230469 L 35.105469 -13.351562 C 33.839844 -13.238281 33.265625 -13.238281 32.230469 -13.238281 C 26.128906 -13.238281 23.367188 -15.078125 23.367188 -24.054688 L 23.367188 -47.308594 L 34.644531 -47.308594 L 34.644531 -60.199219 L 23.367188 -60.199219 L 23.367188 -72.859375 L 7.710938 -72.859375 Z M 7.710938 -60.199219 "/></g></g></g><g fill="#358ca0" fill-opacity="1"><g transform="translate(577.569575, 102.955811)"><g><path d="M 6.214844 0 L 22.101562 0 L 22.101562 -83.21875 L 6.214844 -83.21875 Z M 6.214844 0 "/></g></g></g><g fill="#358ca0" fill-opacity="1"><g transform="translate(608.186085, 102.955811)"><g><path d="M 2.761719 -18.648438 C 2.761719 -5.984375 13.121094 1.496094 25.324219 1.496094 C 32.230469 1.496094 36.832031 -0.574219 39.941406 -3.914062 L 40.976562 0 L 55.019531 0 L 55.019531 -38.097656 C 55.019531 -51.566406 49.265625 -61.695312 29.925781 -61.695312 C 20.71875 -61.695312 11.625 -58.242188 6.214844 -54.558594 L 12.199219 -43.738281 C 16.691406 -46.042969 22.214844 -47.996094 28.199219 -47.996094 C 35.222656 -47.996094 39.136719 -44.429688 39.136719 -39.136719 L 39.136719 -35.222656 C 36.949219 -36.71875 32.230469 -38.558594 26.128906 -38.558594 C 12.085938 -38.558594 2.761719 -30.503906 2.761719 -18.648438 Z M 18.648438 -19.105469 C 18.648438 -24.054688 22.90625 -27.507812 29.007812 -27.507812 C 35.105469 -27.507812 39.480469 -24.402344 39.480469 -19.105469 C 39.480469 -14.042969 35.105469 -10.820312 29.121094 -10.820312 C 23.136719 -10.820312 18.648438 -14.15625 18.648438 -19.105469 Z M 18.648438 -19.105469 "/></g></g></g><g fill="#358ca0" fill-opacity="1"><g transform="translate(670.915321, 102.955811)"><g><path d="M 37.867188 -61.695312 C 30.042969 -61.695312 24.285156 -57.320312 21.753906 -53.175781 L 21.753906 -60.199219 L 6.214844 -60.199219 L 6.214844 0 L 22.101562 0 L 22.101562 -36.140625 C 22.101562 -42.589844 26.242188 -47.421875 32.804688 -47.421875 C 38.214844 -47.421875 42.816406 -43.277344 42.816406 -36.601562 L 42.816406 0 L 58.703125 0 L 58.703125 -34.761719 C 58.703125 -47.539062 55.019531 -61.695312 37.867188 -61.695312 Z M 37.867188 -61.695312 "/></g></g></g><g fill="#358ca0" fill-opacity="1"><g transform="translate(737.557957, 102.955811)"><g><path d="M 65.148438 -83.21875 L 49.265625 -83.21875 L 49.265625 -53.867188 C 47.769531 -55.941406 41.78125 -61.695312 31.421875 -61.695312 C 14.15625 -61.695312 2.878906 -48.6875 2.878906 -30.042969 C 2.878906 -11.511719 15.078125 1.496094 32.34375 1.496094 C 42.589844 1.496094 48.574219 -4.257812 50.183594 -6.214844 L 50.183594 0 L 65.148438 0 Z M 49.722656 -29.925781 C 49.722656 -20.375 43.96875 -12.546875 34.300781 -12.546875 C 25.324219 -12.546875 18.875 -19.222656 18.875 -29.925781 C 18.875 -40.402344 25.09375 -47.652344 34.300781 -47.652344 C 43.046875 -47.652344 49.722656 -41.207031 49.722656 -29.925781 Z M 49.722656 -29.925781 "/></g></g></g><g fill="#444444" fill-opacity="1"><g transform="translate(627.088481, 163.098953)"><g><path d="M 6.191406 0.660156 C 8.625 0.660156 10.503906 -1.269531 10.503906 -3.601562 C 10.503906 -5.988281 8.625 -7.96875 6.191406 -7.96875 C 3.753906 -7.96875 1.878906 -5.988281 1.878906 -3.601562 C 1.878906 -1.269531 3.753906 0.660156 6.191406 0.660156 Z M 6.191406 0.660156 "/></g></g></g><g fill="#444444" fill-opacity="1"><g transform="translate(640.482912, 163.098953)"><g><path d="M 4.667969 7.308594 C 7.054688 8.625 10.757812 9.742188 14.410156 9.742188 C 22.226562 9.742188 28.671875 6.546875 28.671875 -3.347656 L 28.671875 -26.539062 L 22.074219 -26.539062 L 22.074219 -23.75 C 21.3125 -24.761719 18.625 -27.199219 14.15625 -27.199219 C 6.597656 -27.199219 1.21875 -21.414062 1.21875 -13.246094 C 1.21875 -5.074219 6.242188 0.660156 13.902344 0.660156 C 18.523438 0.660156 21.109375 -1.980469 21.667969 -2.738281 L 21.667969 -1.523438 C 21.667969 2.589844 18.167969 3.753906 14.359375 3.753906 C 10.707031 3.753906 7.664062 2.386719 6.800781 1.929688 Z M 21.871094 -13.296875 C 21.871094 -8.574219 19.128906 -5.53125 15.070312 -5.53125 C 11.113281 -5.53125 8.269531 -8.625 8.269531 -13.296875 C 8.269531 -17.964844 11.0625 -21.007812 15.019531 -21.007812 C 19.128906 -21.007812 21.871094 -17.8125 21.871094 -13.296875 Z M 21.871094 -13.296875 "/></g></g></g><g fill="#444444" fill-opacity="1"><g transform="translate(672.649596, 163.098953)"><g><path d="M 1.269531 -13.195312 C 1.269531 -5.175781 7.257812 0.660156 15.527344 0.660156 C 23.851562 0.660156 29.835938 -5.175781 29.835938 -13.195312 C 29.835938 -21.210938 23.648438 -27.199219 15.527344 -27.199219 C 7.460938 -27.199219 1.269531 -21.261719 1.269531 -13.195312 Z M 8.269531 -13.195312 C 8.269531 -17.761719 11.316406 -21.007812 15.527344 -21.007812 C 19.738281 -21.007812 22.835938 -17.710938 22.835938 -13.195312 C 22.835938 -8.675781 19.738281 -5.53125 15.527344 -5.53125 C 11.367188 -5.53125 8.269531 -8.675781 8.269531 -13.195312 Z M 8.269531 -13.195312 "/></g></g></g><g fill="#444444" fill-opacity="1"><g transform="translate(704.714813, 163.098953)"><g><path d="M 17.8125 0 L 27.300781 -26.539062 L 19.839844 -26.539062 L 13.75 -7.460938 L 7.664062 -26.539062 L 0.203125 -26.539062 L 9.691406 0 Z M 17.8125 0 "/></g></g></g><g fill="#444444" fill-opacity="1"><g transform="translate(733.177789, 163.098953)"><g><path d="M 6.191406 0.660156 C 8.625 0.660156 10.503906 -1.269531 10.503906 -3.601562 C 10.503906 -5.988281 8.625 -7.96875 6.191406 -7.96875 C 3.753906 -7.96875 1.878906 -5.988281 1.878906 -3.601562 C 1.878906 -1.269531 3.753906 0.660156 6.191406 0.660156 Z M 6.191406 0.660156 "/></g></g></g><g fill="#444444" fill-opacity="1"><g transform="translate(746.572226, 163.098953)"><g><path d="M 11.722656 0.660156 C 15.171875 0.660156 17.710938 -1.269531 18.828125 -3.09375 L 18.828125 0 L 25.675781 0 L 25.675781 -26.539062 L 18.675781 -26.539062 L 18.675781 -10.605469 C 18.675781 -7.765625 16.847656 -5.632812 13.953125 -5.632812 C 11.570312 -5.632812 9.539062 -7.460938 9.539062 -10.402344 L 9.539062 -26.539062 L 2.539062 -26.539062 L 2.539062 -11.214844 C 2.539062 -5.582031 4.160156 0.660156 11.722656 0.660156 Z M 11.722656 0.660156 "/></g></g></g><g fill="#444444" fill-opacity="1"><g transform="translate(775.745502, 163.098953)"><g><path d="M 2.738281 0 L 9.742188 0 L 9.742188 -13.699219 L 18.625 0 L 26.84375 0 L 16.796875 -14.511719 L 26.132812 -26.539062 L 18.269531 -26.539062 L 9.742188 -15.375 L 9.742188 -36.6875 L 2.738281 -36.6875 Z M 2.738281 0 "/></g></g></g></svg>